<svg xmlns="http://www.w3.org/2000/svg" width="192" height="192" viewBox="0 0 192 192" fill="none">
  <rect width="192" height="192" rx="42" fill="#F8F5E8"/>
  <path d="M74.2 39.8C95.6 35.3 114.8 50.9 116.2 72.2C117.4 90.2 104.8 108.2 86.4 111.1C66.5 114.3 47.8 101.7 43.4 82.8C39.2 64.5 51.8 44.6 74.2 39.8Z" fill="#106AA9"/>
  <circle cx="71.5" cy="68.3" r="9.2" fill="black" stroke="white" stroke-width="2"/>
  <circle cx="88.9" cy="69.4" r="9.2" fill="black" stroke="white" stroke-width="2"/>
  <path d="M73.9 83.1C77.2 88.3 84.6 89.6 89.8 86" stroke="#111111" stroke-width="3" stroke-linecap="round"/>
  <path d="M131.7 89.5C146.2 86.6 159.8 96.4 161 110.8C162 123.5 152.5 136.3 139.5 138.4C126 140.6 113.2 131.7 110.1 119.1C107.1 106.8 115.7 92.8 131.7 89.5Z" fill="#FC5F1F"/>
  <circle cx="128.9" cy="109.2" r="8.3" fill="black" stroke="white" stroke-width="2"/>
  <circle cx="144.5" cy="110.4" r="8.3" fill="black" stroke="white" stroke-width="2"/>
  <path d="M131 122.5C134.1 127 140.5 128.1 145 124.9" stroke="#111111" stroke-width="3" stroke-linecap="round"/>
</svg>
